<svg width="626" height="792" viewBox="0 0 626 792" fill="none" xmlns="http://www.w3.org/2000/svg">
<path d="M238.001 38.0207L259.958 17.5457L260.892 17.8312L267.646 47.0842L289.603 26.6093L290.537 26.8948L297.291 56.1477L299.456 54.1279C295.012 98.7633 330.166 144.625 384.382 161.201C439.09 177.927 494.38 159.077 515.233 118.844L533.883 101.453L540.857 131.659L563.529 110.517L570.502 140.722L593.174 119.58L600.148 149.786L622.949 128.523L625.255 129.228L423.446 789.316L417.147 762.034L394.476 783.175L387.502 752.971L364.83 774.111L357.856 743.907L335.185 765.048L328.211 734.844L323.783 738.972C324.404 696.456 290.076 654.169 238.489 638.397C186.412 622.476 133.807 638.79 110.881 675.098L109.217 667.89L86.5456 689.031L79.5718 658.827L56.9001 679.968L49.9263 649.763L27.2547 670.904L20.2809 640.7L1.26598 658.431L202.057 1.67447L208.355 28.9571L230.313 8.48221L231.246 8.76773L238.001 38.0207Z" fill="#91DCFF"/>
<rect x="222.974" y="145.316" width="315" height="431" transform="rotate(17 222.974 145.316)" stroke="#4FC6FE" stroke-width="12"/>
<path d="M279.636 316.778L285.995 298.311L414.93 342.707L408.571 361.174L354.512 342.56L301.677 496.005L280.859 488.837L333.695 335.392L279.636 316.778Z" fill="url(#paint0_linear_15_35)"/>
<defs>
<linearGradient id="paint0_linear_15_35" x1="291.9" y1="244.077" x2="460.202" y2="302.028" gradientUnits="userSpaceOnUse">
<stop stop-color="#E252FF"/>
<stop offset="0.5" stop-color="#D377E6"/>
<stop offset="1" stop-color="#883199"/>
</linearGradient>
</defs>
</svg>
